<svg height="1024" width="1024" xmlns:xlink="http://www.w3.org/1999/xlink" xmlns="http://www.w3.org/2000/svg">
	<path d="M513.618 299.426C513.281 295.403 511.665 286.422 514.121 283.14C517.168 279.067 537.757 279.133 543.225 279.32C545.797 279.408 548.813 279.75 550.867 281.422C553.522 286.87 552.584 295.41 552.659 301.477C545.041 301.41 522.098 305.963 515.24 308.813C512.909 309.782 511.072 311.115 509.285 312.885C500.194 321.892 497.216 337.992 497.399 350.289C497.564 361.351 501.234 374.583 509.362 382.454C512.17 385.173 515.174 387.249 518.521 389.248C522.707 389.934 527.053 391.88 531.297 392.801C542.874 395.314 557.556 394.944 568.827 391.328C576.576 388.842 582.694 384.636 586.42 377.163C593.427 363.111 593.163 345.311 588.112 330.694C585.098 321.972 579.433 313.604 570.877 309.568C560.403 304.626 546.443 305.866 535.815 309.683Q534.972 309.986 534.144 310.33Q533.317 310.674 532.507 311.058Q531.698 311.443 530.908 311.866Q530.119 312.29 529.351 312.752Q528.583 313.214 527.839 313.713Q527.094 314.212 526.375 314.747Q525.656 315.282 524.965 315.851Q524.273 316.421 523.61 317.024Q522.947 317.627 522.315 318.262Q521.682 318.896 521.082 319.561Q520.481 320.227 519.914 320.92Q519.347 321.614 518.814 322.335Q518.282 323.056 517.785 323.802Q517.289 324.548 516.83 325.317Q516.371 326.087 515.95 326.878Q515.529 327.669 515.148 328.48C510.299 338.886 511.179 351.721 515.021 362.305C517.89 370.206 522.745 376.35 530.56 379.888C539.947 384.138 551.488 385.219 561.226 381.528C568.344 378.83 573.565 373.481 576.581 366.563C581.012 356.401 579.77 346.259 575.902 336.177C574.497 337.963 573.346 339.746 572.244 341.732C572.864 344.853 573.376 348.13 573.479 351.311C573.739 359.311 571.1 367.914 565.379 373.68C561.618 377.47 556.442 379.921 551.051 379.884C539.941 379.807 538.789 369.653 531.618 364.012C528.559 361.605 523.69 361.256 521.132 358.439C519.262 356.379 519.132 353.475 519.268 350.834C519.795 340.66 523.574 331.388 531.364 324.618C537.651 319.155 546.692 315.993 555.016 316.788C562.796 317.531 570.356 321.539 575.124 327.753C581.381 335.909 584.147 347.904 582.662 358.011C581.383 366.716 577.244 375.414 570.032 380.712C561.836 386.734 549.261 387.543 539.481 386.059C530.375 384.676 522.393 380.767 516.875 373.198C509.682 363.33 506.989 348.702 508.961 336.757C510.635 326.614 516.922 317.217 525.311 311.339C536.203 303.709 552.568 301.769 565.42 303.926L564.024 300.317C565.135 299.216 566.426 298.39 567.54 297.295C572.589 296.475 599.433 295.447 603.141 298.108C606.598 300.589 607.584 305.776 608.094 309.733C608.85 315.612 609.129 321.613 609.523 327.528C616.123 331.659 618.687 339.64 620.391 346.887C622.176 354.483 623.152 362.999 621.914 370.752C646.562 408.181 689.794 483.534 680.644 529.144C678.995 537.363 674.896 545.274 667.749 549.997C660.514 554.778 652.109 555.435 643.832 553.564C613.78 546.769 577.711 501.384 560.439 477.249L554.093 478.305C556.282 499.835 556.88 521.482 557.637 543.102Q559.276 582.224 558.893 621.378C558.347 669.927 555.714 718.359 553.803 766.858L551.15 830.616L550.272 853.992C550.133 857.487 550.31 861.476 549.761 864.917C549.515 872.578 549.526 880.162 550.078 887.814C556.184 891.254 562.3 895.156 568.64 898.112C574.883 901.028 580.817 904.531 587.025 907.496C598.25 912.856 610.773 917.726 621.102 924.652C623.112 926 625.337 927.765 626.383 930.016C626.8 930.911 626.957 932.035 626.571 932.958C626.073 934.145 625.303 934.917 624.103 935.359C612.737 939.541 569.131 937.734 554.213 937.982C547.563 938.092 541.213 940.024 534.604 940.185C518.568 940.577 502.45 939.564 486.402 939.519C460.135 939.444 432.478 940.048 406.328 938.508C404.268 938.386 401.016 938.342 399.298 937.17C396.352 935.161 395.55 930.924 395.095 927.622C394.377 922.4 394.325 916.986 394.083 911.718C393.427 897.429 393.481 883.127 392.701 868.844Q388.289 789.287 385.416 709.658Q384.992 694.814 384.94 679.965C384.927 674.025 385.416 667.599 384.689 661.725L382.621 661.262C376.63 660.916 343.51 659.429 340.82 656.189C339.169 654.2 338.757 650.556 338.467 648.026C337.363 638.401 337.806 628.157 337.624 618.451Q336.861 589.573 337.363 560.689C336.96 560.373 336.564 560.046 336.182 559.703C330.85 554.925 326.649 549.157 324.15 542.431C317.743 525.182 321.118 496.041 324.011 477.789C324.825 472.652 327.491 463.469 327.267 458.823C327.063 458.781 326.858 458.743 326.655 458.698C325.007 458.333 324.391 458.301 323.493 456.886C323.216 452.233 327.734 442.798 329.714 438.374C345.989 402.015 381.694 361.182 419.508 346.761C414.143 341.549 410.335 335.974 407.363 329.131C400.549 328.474 394.454 327.376 388.63 323.587C382.995 319.922 378.595 314.474 377.366 307.741C376.597 303.534 376.959 299.057 379.619 295.554C383 291.101 388.197 289.807 393.452 289.217L394.203 291.966C389.463 292.879 384.644 294.728 381.887 298.959C380.195 301.555 379.883 304.634 380.595 307.611C381.992 313.449 386.606 318.185 391.698 321.082C397.653 324.47 403.078 324.758 409.699 325.519C412.897 333.953 416.614 339.14 423.572 344.89C430.786 349.857 436.262 351.984 444.788 353.896C446.157 344.549 446.444 338.824 454.563 332.741C453.985 324.466 451.988 308.015 457.341 301.373C458.825 299.533 460.871 298.389 463.122 297.747C471.489 295.36 487.606 296.631 497.202 295.387L497.693 294.65C498.806 295.026 499.788 295.229 500.955 295.362C500.658 296.817 500.308 297.236 501.082 298.548C505.073 299.941 509.444 299.363 513.618 299.426ZM327.441 454.613C348.601 452.308 370.759 452.34 391.513 457.574C395.615 451.709 403.486 442.71 406.01 436.596C408.411 430.78 407.882 411.906 414.977 409.653L415.813 409.904C416.044 412.494 410.996 426.95 410.035 431.443Q416.925 420.764 423.593 409.945C425.629 406.711 427.627 402.74 430.188 399.946C430.534 398.785 430.657 397.985 430.374 396.782C429.559 393.32 428.013 389.803 426.933 386.395C424.723 379.419 422.701 372.107 421.179 364.951C420.192 360.31 420.901 355.113 419.508 350.628C381.055 367.084 346.025 406.94 330.573 445.558C329.389 448.516 328.24 451.524 327.441 454.613ZM478.156 891.905C489.415 897.567 501.171 906.214 512.071 912.916C522.924 919.589 534.649 925.488 545.188 932.572C547.846 922.104 551.947 913.718 559.211 905.649C561.02 903.639 563.422 901.968 565.066 899.894C559.618 897.86 554.168 892.506 548.532 891.413C543.723 890.481 538.435 895.732 533.816 894.485L533.261 893.322L533.687 892.129C536.794 889.331 542.462 888.6 546.477 887.596C545.878 882.076 546.124 876.33 546.173 870.778L546.07 860.721C536.497 860.961 526.961 862.414 517.404 863.05C504.467 863.91 491.49 863.983 478.529 864.079Q477.694 877.983 478.156 891.905ZM588.121 322.623C593.877 321.481 600.467 321.507 605.727 324.341C605.244 319.369 604.674 314.388 604.417 309.398C600.938 308.213 581.947 308.984 576.317 308.772C582.119 311.893 585.16 316.972 588.121 322.623ZM565.074 342.95C569.038 340.448 571.359 336.686 573.953 332.894C571.139 327.307 566.004 323.353 560.123 321.34C556.844 320.217 553.753 319.893 550.315 320.107C547.476 320.668 545.288 321.199 543.685 323.805C542.431 325.846 542.466 328.36 543.115 330.596C544.521 335.442 548.69 340.151 553.141 342.449C557.008 344.445 560.564 344.469 564.659 343.105C564.799 343.059 564.935 343.002 565.074 342.95ZM435.005 655.701C450.577 656.882 466.319 656.964 481.933 657.105C506.55 657.325 530.645 658.039 554.721 651.911Q555.275 633.287 555.197 614.654Q555.936 538.435 549.883 462.454C549.294 454.983 544.292 417.61 545.519 415.064L546.444 414.88C550.407 418.809 553.681 467.39 554.093 475.963C562.753 472.759 571.643 470.214 580.308 467.005C587.692 464.27 594.757 460.904 601.997 457.833C595.158 434.935 586.585 413.663 575.248 392.653C557.074 399.463 534.156 399.82 516.303 391.54C516.105 391.448 515.912 391.346 515.716 391.249C514.611 401.354 512.005 411.564 509.576 421.425C507.426 430.156 505.382 438.982 502.815 447.6C497.636 464.995 491.329 482.181 485.37 499.32Q470.242 543.08 456.066 587.157Q448.872 608.806 442.43 630.691C439.905 638.972 437.029 647.286 435.005 655.701ZM389.711 460.776C374.219 456.692 347.246 456.269 331.49 458.096C325.784 482.362 317.415 525.804 330.911 547.837C334.926 554.392 340.408 559.077 347.621 561.755C359.747 565.231 369.239 564.396 380.351 558.264C404.376 545.005 450.426 466.385 466.339 438.671Q474.525 424.125 483.347 409.956C486.285 405.146 489.058 399.742 492.851 395.574C496.572 391.484 501.94 388.356 506.499 385.245C503.232 384.118 501.439 382.891 499.07 380.427C495.162 380.503 491.041 381.71 487.234 381.3L486.626 380.136C486.971 379.067 486.974 378.842 488.035 378.297C491.188 376.677 497.134 376.995 500.69 376.84C498.783 372.344 496.761 367.576 495.653 362.813C492.87 363.17 490.075 363.537 487.338 364.168C483.85 364.974 474.22 368.512 471.091 368.188C470.673 368.144 470.326 367.838 469.943 367.663C469.84 366.794 469.636 366.862 470.169 366.307C473.456 362.892 490.09 359.973 494.852 359.34C494.08 354.279 493.466 348.982 493.954 343.867C488.525 344.924 483.216 346.126 477.928 347.778C473.552 349.145 467.029 352.838 462.605 352.965L462.204 352.31C463.36 349.91 465.672 348.108 468.171 347.238Q481.02 342.689 494.431 340.248C495.006 336.615 495.415 332.832 496.395 329.29C493.767 329.126 491.181 328.883 488.559 329.217C479.142 329.866 459.662 331.246 453.219 338.652C447.054 345.738 448.246 370.968 443.727 381.825C439.312 392.433 428.545 409.062 422.168 419.087C409.763 438.589 396.28 457.353 383.097 476.32C376.184 486.266 368.515 498.862 360.872 507.917C359.879 509.094 358.832 509.97 357.374 510.498L356.571 510.084C356.534 508.727 356.924 507.765 357.572 506.602C360.228 501.831 364.088 497.197 367.232 492.693L389.711 460.776ZM595.069 351.719C598.803 353.261 605.635 356.595 607.16 360.591C607.219 360.746 607.257 360.908 607.305 361.067L607.101 360.286L606.577 361.25C602.159 360.314 598.947 357.452 595.064 355.383C594.947 358.693 594.549 361.778 593.932 365.032C597.065 365.159 600.435 364.899 603.15 366.668L603.105 367.455C600.183 369.239 596.483 368.77 593.194 368.703C590.058 377.997 586.708 385.761 578.235 391.357C585.414 403.07 590.716 415.593 595.82 428.311C599.855 438.367 623.597 508.619 622.244 514.625C622.089 515.313 622.045 515.316 621.746 515.838L620.827 516.061C619.625 515.297 619.355 514.847 618.911 513.487C613.215 496.046 609.645 478.001 603.017 460.791C590.474 467.497 577.251 471.79 563.852 476.367C568.938 482.315 573.72 488.503 578.534 494.671C594.518 514.352 622.502 548.082 648.981 550.725C655.54 551.38 662.177 549.954 667.391 545.747C674.384 540.106 677.31 530.814 678.072 522.172C678.767 514.286 677.78 506.202 676.479 498.42C670.551 462.968 653.774 430.948 636.031 400.159C631.99 393.146 625.957 381.258 620.907 375.343C618.274 372.259 615.119 370.573 612.715 367.154C613.854 361.818 614.29 356.335 611.288 351.473C607.97 346.1 601.712 343.308 595.755 342.021Q594.999 341.86 594.24 341.715C594.501 345.042 594.675 348.406 595.069 351.719ZM481.297 434.313C484.385 435.857 487.458 437.465 490.592 438.913C492.482 431.948 502.484 396.592 501.269 392.935C491.261 400.71 481.074 420.048 475.03 431.473L481.297 434.313ZM457.973 313.63C457.404 319.394 457.814 325.234 458.013 331.011C462.195 329.712 466.427 328.887 470.617 327.704L480.97 326.221C480.057 321.637 479.955 317.009 480.039 312.351C474.782 312.364 469.464 312.324 464.218 312.666L457.973 313.63ZM521.908 289.624C521.977 292.967 521.972 296.302 522.5 299.612L529.883 299.515L548.473 299.524C548.454 296.184 548.409 292.928 547.975 289.613L542.15 289.207C535.419 289.429 528.62 289.245 521.908 289.624ZM593.395 338.422C600.772 339.508 609.092 342.387 613.708 348.61C618.553 355.141 615.549 365.636 617.164 367.811C617.509 368.276 618.519 368.839 619.011 369.213C619.114 357.168 617.697 342.441 610.726 332.181C604.663 328.703 598.068 327.518 591.146 327.352C591.887 331.038 592.558 334.756 593.395 338.422ZM433.429 354.789C434.797 360.49 437.835 375.813 440.768 379.935C441.455 378.679 441.769 377.477 442.112 376.103Q444.087 366.479 444.81 356.681C441.023 356.353 437.088 355.837 433.429 354.789ZM482.834 312.024C483.219 316.658 483.298 321.594 484.475 326.098C488.646 326.036 492.827 325.91 496.997 325.982C497.984 325.348 503.755 314.279 505.999 311.54L493.22 311.728C489.761 311.839 486.295 312.001 482.834 312.024ZM396.467 866.909L397.054 894.534C397.277 907.504 396.503 922.463 400.545 934.9C414.643 935.798 428.955 935.715 443.075 935.508C448.606 935.602 454.292 935.947 459.81 935.701C464.878 921.644 476.78 910.104 489.547 902.804Q482.08 898.492 474.758 893.939L473.966 894.158C468.584 895.682 461.751 900.477 456.331 900.329L455.535 899.877C455.53 899.193 455.353 898.753 455.834 898.199C458.997 894.553 469.849 891.733 474.624 890.911C475.13 882.033 475.035 873.096 475.115 864.204C473.222 864.196 471.304 864.118 469.415 864.197C444.967 866.087 421.003 867.283 396.467 866.909ZM467.075 445.513C459.311 456.947 452.465 469.158 445.175 480.912C438.057 492.389 430.402 503.565 422.848 514.759C417.155 523.194 411.446 532.43 404.563 539.935L422.732 540.001C433.163 539.809 443.65 539.45 454.081 539.498L472.274 490.319C475.973 480.373 480.027 470.443 483.364 460.374C477.967 455.399 472.641 450.297 467.075 445.513ZM446.129 543.494C431.457 543.524 416.735 543.302 402.069 543.672L401.763 543.94C398.715 546.653 396.083 549.827 393.097 552.623C383.671 561.448 372.084 568.159 358.768 567.406Q354.685 567.15 350.671 566.361C353.555 580.831 356.1 595.34 359.672 609.667C361.973 618.896 365.347 628.078 367.366 637.306C367.7 638.832 367.638 639.315 366.89 640.678L365.861 641.183C360.118 636.834 348.755 574.984 347.434 566.271Q347.345 565.679 347.286 565.084L340.569 562.726Q340.437 586.032 340.864 609.334C340.958 620.598 339.842 643.003 343.042 653.045C348.733 657.989 416.633 658.854 429.858 659.234L433.458 648.258Q443.007 616.027 453.212 583.998C456.932 572.319 461.123 560.671 464.558 548.918C464.388 548.85 464.218 548.785 464.05 548.715C460.346 547.181 455.303 542.212 451.201 543.564C447.117 544.91 413.637 627.027 407.743 637.124C407.157 638.127 406.648 638.776 405.589 639.315L404.787 638.869C404.317 637.105 404.593 635.59 405.167 633.884C407.712 626.328 412.109 618.769 415.298 611.396C425.139 588.646 435.145 565.711 446.129 543.494Z" fill="#171617"></path>
	<path d="M572.244 341.732C572.864 344.853 573.376 348.13 573.479 351.311C573.739 359.311 571.1 367.914 565.379 373.68C561.618 377.47 556.442 379.921 551.051 379.884C539.941 379.807 538.789 369.653 531.618 364.012C528.559 361.605 523.69 361.256 521.132 358.439C519.262 356.379 519.132 353.475 519.268 350.834C519.795 340.66 523.574 331.388 531.364 324.618C537.651 319.155 546.692 315.993 555.016 316.788C562.796 317.531 570.356 321.539 575.124 327.753C581.381 335.909 584.147 347.904 582.662 358.011C581.383 366.716 577.244 375.414 570.032 380.712C561.836 386.734 549.261 387.543 539.481 386.059C530.375 384.676 522.393 380.767 516.875 373.198C509.682 363.33 506.989 348.702 508.961 336.757C510.635 326.614 516.922 317.217 525.311 311.339C536.203 303.709 552.568 301.769 565.42 303.926C567.515 305.911 573.406 308.843 576.317 308.772C582.119 311.893 585.16 316.972 588.121 322.623C593.877 321.481 600.467 321.507 605.727 324.341C605.244 319.369 604.674 314.388 604.417 309.398C605.864 311.47 606.904 320.019 606.394 322.569C606.137 323.855 605.465 324.306 604.409 324.908C603.062 324.547 603.243 324.147 602.213 323.474C600.466 322.332 590.574 322.924 588.335 323.323C583.709 320.577 584.534 313.717 574.668 309.253L574.297 309.533C576.893 312.743 580.247 315.131 582.772 318.46C590.987 329.29 593.632 345.875 592.203 359.135C591.238 368.089 588.242 380.248 580.95 386.184C569.234 395.722 549.718 395.881 535.557 394.177C530.046 393.513 523.802 392.6 518.804 390.061L518.521 389.248C522.707 389.934 527.053 391.88 531.297 392.801C542.874 395.314 557.556 394.944 568.827 391.328C576.576 388.842 582.694 384.636 586.42 377.163C593.427 363.111 593.163 345.311 588.112 330.694C585.098 321.972 579.433 313.604 570.877 309.568C560.403 304.626 546.443 305.866 535.815 309.683Q534.972 309.986 534.144 310.33Q533.317 310.674 532.507 311.058Q531.698 311.443 530.908 311.866Q530.119 312.29 529.351 312.752Q528.583 313.214 527.839 313.713Q527.094 314.212 526.375 314.747Q525.656 315.282 524.965 315.851Q524.273 316.421 523.61 317.024Q522.947 317.627 522.315 318.262Q521.682 318.896 521.082 319.561Q520.481 320.227 519.914 320.92Q519.347 321.614 518.814 322.335Q518.282 323.056 517.785 323.802Q517.289 324.548 516.83 325.317Q516.371 326.087 515.95 326.878Q515.529 327.669 515.148 328.48C510.299 338.886 511.179 351.721 515.021 362.305C517.89 370.206 522.745 376.35 530.56 379.888C539.947 384.138 551.488 385.219 561.226 381.528C568.344 378.83 573.565 373.481 576.581 366.563C581.012 356.401 579.77 346.259 575.902 336.177C574.497 337.963 573.346 339.746 572.244 341.732ZM565.074 342.95C569.038 340.448 571.359 336.686 573.953 332.894C571.139 327.307 566.004 323.353 560.123 321.34C556.844 320.217 553.753 319.893 550.315 320.107C547.476 320.668 545.288 321.199 543.685 323.805C542.431 325.846 542.466 328.36 543.115 330.596C544.521 335.442 548.69 340.151 553.141 342.449C557.008 344.445 560.564 344.469 564.659 343.105C564.799 343.059 564.935 343.002 565.074 342.95Z"></path>
	<path d="M393.452 289.217L394.203 291.966C389.463 292.879 384.644 294.728 381.887 298.959C380.195 301.555 379.883 304.634 380.595 307.611C381.992 313.449 386.606 318.185 391.698 321.082C397.653 324.47 403.078 324.758 409.699 325.519C412.897 333.953 416.614 339.14 423.572 344.89C422.598 346.34 421.759 346.881 420.224 347.689C419.449 348.71 419.534 349.397 419.508 350.628C381.055 367.084 346.025 406.94 330.573 445.558C329.389 448.516 328.24 451.524 327.441 454.613C348.601 452.308 370.759 452.34 391.513 457.574C395.615 451.709 403.486 442.71 406.01 436.596C408.411 430.78 407.882 411.906 414.977 409.653L415.813 409.904C416.044 412.494 410.996 426.95 410.035 431.443Q416.925 420.764 423.593 409.945C425.629 406.711 427.627 402.74 430.188 399.946L430.658 400.259C429.124 403.632 426.692 406.566 424.728 409.703C421.882 414.251 419.587 419.054 416.277 423.301C414.424 425.679 413.193 429.22 410.908 431.091L410.223 430.686C409.476 426.549 411.262 423.683 412.081 419.807C412.72 416.788 415.649 413.597 415.132 410.476C413.2 411.366 411.941 413.852 411.198 415.752C408.581 422.439 408.846 431.657 406.907 436.574C405.166 440.993 401.441 445.312 398.703 449.166C396.873 451.742 394.57 455.831 391.957 457.608C385.691 457.883 379.582 455.726 373.399 454.955C365.517 453.972 334.541 452.953 327.547 455.582L326.521 455.056C326.283 450.54 331.494 442.796 332.816 438.048C334.088 433.479 337.489 428.474 339.893 424.302C355.68 396.902 381.914 368.831 409.877 353.868C412.371 352.534 417.992 351.438 419.126 348.703L418.764 348.168C409.532 350.758 401.896 356.527 393.951 361.595C387.318 365.826 374.89 376.796 369.481 382.59C368.541 383.597 368.156 384.894 367.205 385.916C364.988 388.299 362.428 390.401 360.316 392.879C347.524 407.884 336.476 424.317 328.852 442.569C327.212 446.496 325.21 450.872 324.429 455.058C324.283 455.836 324.357 455.713 324.486 456.657C324.636 456.742 324.788 456.826 324.937 456.913C326.566 457.863 327.457 458.454 327.862 460.421C328.566 463.844 325.793 471.4 325.142 475.302C322.042 493.884 317.967 526.575 325.684 543.991C328.526 550.405 333.022 555.414 338 560.25C337.968 580.028 338.196 599.738 338.504 619.506C338.655 629.22 338.128 639.245 339.223 648.89C339.425 650.673 339.704 653.494 341.067 654.823C345.589 659.23 375.14 660.285 382.294 660.532L382.921 660.189L383.234 659L383.886 659.179C383.914 660.125 383.818 660.415 383.059 661.043C382.933 661.147 382.767 661.189 382.621 661.262C376.63 660.916 343.51 659.429 340.82 656.189C339.169 654.2 338.757 650.556 338.467 648.026C337.363 638.401 337.806 628.157 337.624 618.451Q336.861 589.573 337.363 560.689C336.96 560.373 336.564 560.046 336.182 559.703C330.85 554.925 326.649 549.157 324.15 542.431C317.743 525.182 321.118 496.041 324.011 477.789C324.825 472.652 327.491 463.469 327.267 458.823C327.063 458.781 326.858 458.743 326.655 458.698C325.007 458.333 324.391 458.301 323.493 456.886C323.216 452.233 327.734 442.798 329.714 438.374C345.989 402.015 381.694 361.182 419.508 346.761C414.143 341.549 410.335 335.974 407.363 329.131C400.549 328.474 394.454 327.376 388.63 323.587C382.995 319.922 378.595 314.474 377.366 307.741C376.597 303.534 376.959 299.057 379.619 295.554C383 291.101 388.197 289.807 393.452 289.217Z"></path>
	<path d="M546.173 870.778C546.62 868.643 545.966 866.038 546.785 864.181C547.885 863.446 547.839 863.502 549.155 863.702L549.761 864.917C549.515 872.578 549.526 880.162 550.078 887.814C556.184 891.254 562.3 895.156 568.64 898.112C567.171 898.515 566.156 898.743 565.066 899.894C559.618 897.86 554.168 892.506 548.532 891.413C543.723 890.481 538.435 895.732 533.816 894.485L533.261 893.322L533.687 892.129C536.794 889.331 542.462 888.6 546.477 887.596C545.878 882.076 546.124 876.33 546.173 870.778Z"></path>
	<path d="M490.803 680.743C491.828 680.935 492.785 681.024 493.596 681.741C495.473 683.399 491.905 704.804 491.55 708.237Q487.295 746.209 484.828 784.339Q482.361 822.469 481.686 860.673C481.109 860.745 480.293 860.911 479.694 860.867C478.94 860.812 478.445 860.782 478.014 860.133C476.386 857.681 477.407 852.803 477.366 849.89C476.877 815.239 480.331 780.586 483.225 746.096C484.547 730.351 485.86 714.658 487.941 698.989C488.749 692.907 489.362 686.714 490.803 680.743Z" fill="#FBF8FB"></path>
	<path d="M514.145 686.856C515.547 687.573 515.726 687.498 516.319 688.928C515.95 697.238 503.359 713.06 497.4 718.68C497.237 718.617 497.065 718.576 496.912 718.492C495.745 717.856 495.363 717.719 494.935 716.458C496.873 712.727 500.778 710.182 502.977 706.554C506.903 700.075 510.584 693.545 514.145 686.856Z" fill="#FBF8FB"></path>
	<path d="M393.452 289.217C394.306 286.804 394.655 284.093 395.312 281.604C397.044 275.035 399.251 268.669 402.5 262.685C410.977 247.07 427.244 235.368 444.181 230.563C451.034 228.619 458.186 227.82 465.263 227.175C481.32 225.714 496.373 225.645 510.783 233.813C520.937 239.568 537.558 255.641 540.706 266.967C540.793 268.108 540.566 269.176 541.699 269.843C542.047 270.047 542.898 270.312 543.299 270.446C534.96 270.212 512.633 269.015 505.787 272.259C504.926 272.153 503.931 271.706 503.092 271.441C498.381 265.727 494.072 259.68 489.687 253.715C484.841 266.296 476.263 273.459 464.103 278.916C461.475 280.096 457.537 282.024 454.684 280.893C453.889 280.577 453.533 280.075 453.142 279.318C451.375 275.896 454.69 260.91 454.886 256.098C442.266 272.864 425.531 290.812 405.724 298.632C402.155 294.127 400.012 292.759 394.203 291.966L393.452 289.217Z" fill="#171617"></path>
	<path d="M442.936 290.917C445.147 291.011 446.59 291.116 448.147 292.817C449.773 294.595 450.431 296.876 450.261 299.253C450.033 302.436 448.985 304.146 446.594 306.184C445.601 306.394 444.409 306.726 443.406 306.447C442.368 306.158 441.335 305.238 440.733 304.352C439.194 302.084 439.076 299.038 439.52 296.423C439.98 293.722 440.729 292.493 442.936 290.917Z"></path>
	<path d="M645.164 85.8456C645.216 85.8646 645.271 85.8767 645.32 85.9025C646.383 86.4635 646.383 86.4892 646.735 87.6052C646.391 88.792 645.918 89.4796 645.109 90.4233C641.617 94.4946 637.521 98.1584 633.783 102.011Q626 110.161 618.812 118.84C611.27 128.079 604.875 137.67 599.076 148.094L597.549 147.319C597.128 146.31 596.923 145.909 597.105 144.792C598.941 133.486 635.292 93.2268 645.164 85.8456Z"></path>
	<path d="M498.887 204.59C501.943 204.415 503.704 204.36 506.084 206.383C506.611 207.644 506.879 208.357 506.382 209.702C505.979 210.79 505.118 211.84 504.277 212.612C503.926 212.845 503.579 213.085 503.215 213.297C498.28 216.174 487.087 221.852 481.493 220.424C480.82 219.871 480.284 219.676 480.064 218.787C479.655 217.141 480.383 215.706 481.307 214.385C485.02 209.077 492.734 205.826 498.887 204.59Z" fill="#171617"></path>
	<path d="M498.887 204.59C501.943 204.415 503.704 204.36 506.084 206.383C506.611 207.644 506.879 208.357 506.382 209.702C505.979 210.79 505.118 211.84 504.277 212.612C503.951 210.498 504.21 208.486 503.352 206.463C502.021 205.213 500.626 205 498.887 204.59Z"></path>
	<path d="M456.463 198.456C456.719 198.506 456.976 198.549 457.231 198.606C461.818 199.621 465.263 203.878 467.65 207.722C469.524 210.738 471.515 214.665 470.525 218.3C470.032 220.109 469.173 220.644 467.642 221.473C462.965 220.044 459.162 216.587 456.309 212.685C454.301 209.938 452.341 206.281 453.061 202.759C453.517 200.526 454.585 199.615 456.463 198.456Z" fill="#171617"></path>
	<path d="M342.176 108.181L343.625 108.596C347.228 111.527 360.405 142.89 362.635 148.188C364.279 152.092 369.072 161.199 367.522 165.008C366.892 164.86 366.225 164.57 365.613 164.353C362.791 160.453 360.179 151.746 358.119 147.036C353.154 135.682 347.225 124.403 342.953 112.807C342.344 111.155 342.097 109.939 342.176 108.181Z"></path>
	<path d="M484.371 93.2102C485.584 93.6729 485.761 93.7477 486.546 94.7703C487.275 100.181 484.758 117.922 484.144 124.883C483.416 133.138 483.257 141.754 482.018 149.93C481.854 151.016 481.527 151.833 481.028 152.799C480.695 152.712 480.317 152.629 480.012 152.467C479.391 152.137 478.811 151.83 478.691 151.113C478.198 148.175 482.384 100.993 483.19 96.0642C483.383 94.8855 483.718 94.1919 484.371 93.2102Z"></path>
	<path d="M275.821 193.943Q277.436 194.355 279.013 194.895C289.918 198.748 297.364 207.533 304.178 216.419C306.143 218.981 308.841 222.225 309.948 225.293C310.521 226.882 310.105 227.247 309.405 228.682C306.248 226.964 294.666 209.982 290.262 205.771C285.884 201.584 279.335 200.188 275.198 196.119C275.037 194.889 275.089 194.961 275.821 193.943Z"></path>
	<path d="M694.552 196.049C695.731 196.554 695.774 196.286 696.301 197.552C694.746 200.742 683.948 203.973 680.471 205.844C672.838 209.952 666.396 215.142 659.861 220.76C659.237 220.313 658.86 219.853 658.368 219.271C658.382 218.375 658.303 218.152 658.756 217.316C662.977 209.532 685.811 198.263 694.552 196.049Z"></path>
	<path d="M540.706 266.967C547.008 267.654 555.234 268.744 559.532 273.931C564.093 279.437 563.758 292.907 567.54 297.295C566.426 298.39 565.135 299.216 564.024 300.317C561.303 293.145 561.122 284.118 557.106 277.54C553.963 272.392 548.725 271.631 543.299 270.446C542.898 270.312 542.047 270.047 541.699 269.843C540.566 269.176 540.793 268.108 540.706 266.967Z"></path>
	<path d="M748.534 416.942C756.769 417.596 774.324 424.089 779.792 430.447C780.833 431.656 780.699 432.235 780.499 433.755C776.426 433.37 763.99 424.255 757.594 422.562C754.53 421.751 751.386 421.084 748.509 419.732C747.878 418.473 748.139 418.319 748.534 416.942Z"></path>
	<path d="M695.096 297.602C701.494 296.918 708.963 297.341 714.426 301.1C715.932 302.135 717.024 303.201 717.353 305.026L716.539 305.77C714.864 305.926 713.82 305.136 712.421 304.338L711.771 303.96C708.413 302.266 704.966 301.038 701.181 300.825C697.457 300.615 691.275 303.456 688.205 301.629L687.902 300.392C689.401 298.246 692.677 298.09 695.096 297.602Z"></path>
	<path d="M272.759 403.133C273.406 403.122 273.806 403.085 274.471 403.222C275.631 403.461 276.396 404.161 277.024 405.09C276.165 406.789 266.131 408.952 263.644 409.997C260.211 411.441 257.295 413.282 254.277 415.444C252.602 415.815 252.232 415.648 250.858 414.824C251.015 413.924 250.961 413.836 251.57 413.043C255.818 407.507 266.101 404.092 272.759 403.133Z"></path>
	<path d="M503.092 271.441C503.931 271.706 504.926 272.153 505.787 272.259Q502.976 283.728 500.955 295.362C499.788 295.229 498.806 295.026 497.693 294.65C499.142 286.821 499.987 278.833 503.092 271.441Z"></path>
	<path d="M254.706 302.165Q255.875 302.077 257.047 302.07C259.339 302.041 261.314 301.986 263.023 303.666L262.896 304.793C259.302 306.584 254.236 306.082 250.283 307.602C250.091 307.675 249.902 307.753 249.711 307.829C248.271 308.901 247.239 309.846 245.402 309.833L244.72 308.993C244.802 308.273 244.954 307.775 245.369 307.171C247.652 303.854 250.855 302.79 254.706 302.165Z"></path>
</svg>
